<?xml version="1.0" encoding="utf-8"?>
<!-- Generator: Adobe Illustrator 16.0.0, SVG Export Plug-In . SVG Version: 6.00 Build 0)  -->
<!DOCTYPE svg PUBLIC "-//W3C//DTD SVG 1.1//EN" "http://www.w3.org/Graphics/SVG/1.1/DTD/svg11.dtd">
<svg version="1.1" id="Capa_1" xmlns="http://www.w3.org/2000/svg" xmlns:xlink="http://www.w3.org/1999/xlink" x="0px" y="0px"
	 width="800px" height="600px" viewBox="0 0 800 600" enable-background="new 0 0 800 600" xml:space="preserve">
<text transform="matrix(0.9499 0 0 1 56 404.8975)" fill="#757A0C" font-family="'ComicSansMS-Bold'" font-size="137.274">MercaDomi</text>
<text transform="matrix(0.9499 0 0 1 359.4141 457.0615)" font-family="'ComicSansMS-Bold'" font-size="35.6912">Tu mercado a domicilio</text>
<g>
	<g>
		<g>
			<g>
				<path fill="#D32027" d="M567.7,211.042c-24.01,7.272-61.542,39.008-54.635,64.283c0.155,0.563,0.355,1.106,0.548,1.653
					l97.296-29.471C603.999,222.232,591.707,203.769,567.7,211.042z"/>
				<path fill="#B7202A" d="M592.716,302.57c24.01-7.273,25.1-29.79,18.193-55.063l-97.296,29.471
					C522.158,300.991,569.242,309.682,592.716,302.57z"/>
			</g>
			<g>
				<g>
					<path fill="#E8A922" d="M528.916,274.55c-2.78,0.842-5.312,0.515-5.651-0.73c-0.339-1.247,1.638-2.941,4.417-3.784
						c2.782-0.843,5.313-0.514,5.654,0.733C533.676,272.016,531.696,273.708,528.916,274.55z"/>
				</g>
				<g>
					<path fill="#E8A922" d="M604.786,269.469c-2.781,0.845-5.309,0.516-5.652-0.731c-0.34-1.247,1.638-2.94,4.42-3.782
						c2.777-0.842,5.31-0.515,5.65,0.731C609.546,266.936,607.563,268.631,604.786,269.469z"/>
				</g>
				<g>
					<path fill="#E8A922" d="M583.586,275.764c-2.78,0.841-5.309,0.515-5.651-0.734c-0.34-1.247,1.637-2.94,4.416-3.784
						c2.783-0.841,5.313-0.513,5.656,0.734C588.347,273.227,586.367,274.92,583.586,275.764z"/>
				</g>
				<g>
					<path fill="#E8A922" d="M561.949,282.705c-2.78,0.842-5.31,0.514-5.651-0.732c-0.338-1.245,1.637-2.94,4.419-3.783
						c2.78-0.843,5.313-0.511,5.653,0.731C566.71,280.168,564.73,281.862,561.949,282.705z"/>
				</g>
				<g>
					<path fill="#E8A922" d="M540.604,288.912c-2.781,0.843-5.311,0.517-5.651-0.734c-0.341-1.246,1.637-2.94,4.416-3.782
						c2.782-0.842,5.313-0.514,5.653,0.732C545.363,286.376,543.387,288.072,540.604,288.912z"/>
				</g>
				<g>
					<path fill="#E8A922" d="M604.108,287.398c-2.569,1.405-5.11,1.609-5.678,0.46c-0.57-1.153,1.051-3.226,3.619-4.628
						c2.568-1.406,5.108-1.61,5.677-0.46C608.296,283.921,606.675,285.993,604.108,287.398z"/>
				</g>
				<g>
					<path fill="#E8A922" d="M585.319,296.882c-2.853,0.482-5.329-0.163-5.524-1.444c-0.197-1.281,1.96-2.714,4.816-3.197
						c2.857-0.482,5.333,0.162,5.526,1.444C590.334,294.966,588.181,296.398,585.319,296.882z"/>
				</g>
				<g>
					<path fill="#E8A922" d="M560.238,299.137c-2.881,0.311-5.315-0.487-5.438-1.776c-0.123-1.292,2.108-2.588,4.985-2.893
						c2.882-0.308,5.315,0.487,5.439,1.778C565.349,297.535,563.116,298.834,560.238,299.137z"/>
				</g>
				<g>
					<path fill="#E8A922" d="M593.099,255.11c-2.782,0.841-5.312,0.514-5.652-0.731c-0.34-1.249,1.638-2.94,4.419-3.784
						c2.779-0.841,5.31-0.514,5.651,0.734C597.857,252.573,595.879,254.267,593.099,255.11z"/>
				</g>
				<path fill="#E8A922" d="M571.9,261.401c-2.781,0.843-5.311,0.514-5.651-0.732c-0.342-1.247,1.635-2.94,4.417-3.782
					c2.78-0.842,5.311-0.515,5.65,0.732C576.656,258.864,574.682,260.561,571.9,261.401z"/>
				<g>
					<path fill="#E8A922" d="M550.265,268.345c-2.782,0.842-5.313,0.514-5.65-0.732c-0.345-1.25,1.634-2.941,4.415-3.782
						c2.78-0.842,5.312-0.516,5.653,0.732C555.022,265.81,553.043,267.502,550.265,268.345z"/>
				</g>
				<path fill="#E8A922" d="M594.837,235.775c-2.782,0.843-5.312,0.516-5.654-0.732c-0.34-1.247,1.64-2.939,4.422-3.783
					c2.778-0.842,5.31-0.514,5.65,0.73C599.595,233.24,597.617,234.933,594.837,235.775z"/>
				<path fill="#E8A922" d="M573.637,242.066c-2.78,0.843-5.31,0.515-5.649-0.732c-0.342-1.248,1.636-2.941,4.417-3.784
					c2.78-0.841,5.311-0.513,5.653,0.732C578.397,239.531,576.417,241.226,573.637,242.066z"/>
				<path fill="#E8A922" d="M552.003,249.008c-2.782,0.843-5.313,0.514-5.654-0.731c-0.34-1.246,1.638-2.94,4.419-3.782
					c2.781-0.841,5.313-0.514,5.653,0.732C556.759,246.474,554.781,248.167,552.003,249.008z"/>
				<g>
					<path fill="#E8A922" d="M530.655,255.217c-2.781,0.843-5.311,0.515-5.651-0.733c-0.341-1.247,1.637-2.938,4.419-3.78
						c2.778-0.843,5.309-0.516,5.651,0.729C535.414,252.681,533.436,254.376,530.655,255.217z"/>
				</g>
				<path fill="#E8A922" d="M583.183,220.878c-2.837,0.601-5.333,0.058-5.576-1.213c-0.243-1.272,1.857-2.791,4.695-3.391
					c2.836-0.605,5.331-0.061,5.577,1.211C588.12,218.756,586.021,220.276,583.183,220.878z"/>
				<g>
					<path fill="#E8A922" d="M562.661,226.445c-2.704,1.084-5.253,0.979-5.69-0.234c-0.438-1.216,1.398-3.075,4.104-4.158
						c2.702-1.083,5.25-0.979,5.688,0.235C567.202,223.501,565.365,225.363,562.661,226.445z"/>
				</g>
				<g>
					<path fill="#E8A922" d="M542.9,235.599c-2.477,1.573-5.001,1.951-5.636,0.84c-0.64-1.111,0.853-3.29,3.33-4.862
						c2.478-1.577,5.003-1.951,5.64-0.841C546.868,231.844,545.377,234.023,542.9,235.599z"/>
				</g>
				<path fill="#609340" d="M622.464,275.676c0.26,0.173,0.408,0.278,0.411,0.271c0,0-0.008-0.015-0.012-0.023
					c0.002,0.003,0.006,0.004,0.006,0.004c0.003,0.005,0.009,0.012,0.014,0.016l-3.993-12.603c0.932-0.772,2.499-2.483,3.135-5.293
					c1.09-3.887,0.433-8.671-0.829-10.254c-0.142-0.19-0.299-0.361-0.462-0.525c-0.031-0.036-0.059-0.073-0.089-0.105
					c-0.028-0.028-0.061-0.051-0.09-0.078c-0.768-0.759-1.726-1.203-2.723-1.368c0.045-0.284,0.062-0.589,0.069-0.907
					c0.001,0.046,0.012,0.103,0.012,0.146c0.03-0.279,0.02-0.615-0.012-0.978c-0.002-0.002,0.001-0.008-0.002-0.013
					c-0.005-0.135-0.032-0.293-0.053-0.446c0.01-0.063,0.022-0.124,0.033-0.184c-0.007,0.05-0.002,0.105-0.01,0.156
					c0.152-0.77,0.149-1.672,0.027-2.628c-0.003-0.035-0.005-0.07-0.012-0.105c-0.013-0.093-0.029-0.188-0.043-0.284
					c-0.221-1.493-0.746-3.091-1.612-4.587c-0.101-0.18-0.191-0.36-0.296-0.534c-0.381-0.602-0.884-1.345-1.725-2.27
					c-0.367-0.441-0.892-0.932-1.443-1.417l-0.415-0.362c-0.462-0.47-0.753-0.582-1.168-0.846c-0.36-0.182-0.633-0.288-0.875-0.365
					l-3.759-11.205c-0.005,0.006-0.01,0.012-0.013,0.021l-0.003,0.001c0.004-0.007,0.006-0.025,0.006-0.025
					c-0.027-0.03-0.146,0.084-0.328,0.325c-0.659,0.874-2.16,3.426-3.19,6.902c-0.548-1.129-1.097-2.169-1.679-2.964
					c-1.118-1.644-2.17-2.264-2.136-2.284l0.003,0.007c-0.003-0.007-0.008-0.01-0.012-0.019l0.012,0.021
					c-0.003-0.003-0.016-0.01-0.016-0.012l-0.002-0.001l0,0l-0.002-0.001c-0.007,0.004,0.059,0.144,0.155,0.388
					c0.045,0.114,0.099,0.256,0.159,0.427c0.17,0.498,0.361,1.203,0.464,2.081c0.216,1.423,0.13,3.25,0.111,5.396
					c-0.007,0.554-0.01,1.112-0.002,1.708c0.036,1.459,0.175,3.098,0.704,4.826c0.785,2.108,1.51,3.232,2.521,4.602
					c2.012,2.558,3.825,3.905,4.758,4.619c0.002,0.002,0.009,0.007,0.009,0.006c0.009,0.005,0.02,0.013,0.024,0.018
					c0.764,0.441,1.778,1.229,2.863,1.973c-2.48-1.012-4.161-1.886-5.268-1.113c0,0.002-0.003,0.002-0.005,0.005
					c-0.002,0.001-0.004,0.001-0.007,0.004c-0.667,0.493-1.935,3.406-3.975,5.633c-0.455,0.612-0.986,1.106-1.527,1.501
					l-3.427,1.317c-0.002-0.003-0.009,0-0.013-0.003l0.001,0.002c0,0,0.001,0.001-0.001-0.002l0.001,0.007l-0.008,0.003
					c0.004,0.002,0.008,0.003,0.012,0.005c0,0.002-0.004,0.002-0.004,0.002c0-0.007,0.005,0.005,0.013,0.013
					c0.006,0.018,0.022,0.046,0.034,0.078c0.1,0.246,0.385,0.979,1.192,1.779c0.992,1.041,2.781,2.106,4.807,2.707
					c2.317,0.748,4.916,0.878,7.063,0.612c0.13,0.933,0.309,1.99,0.54,3.13c0.409,2.017,1.061,5.282,2.965,7.688
					c0.272,0.344,0.569,0.669,0.896,0.973c0.198,0.172,0.39,0.307,0.583,0.458c1.62,1.239,3.053,1.75,4.233,2.203
					c0.289,0.111,0.571,0.222,0.826,0.338c0.051,0.023,0.094,0.05,0.143,0.074c0.15,0.07,0.302,0.146,0.44,0.228
					c0.079,0.039,0.146,0.075,0.223,0.112c0.577,0.292,1.052,0.569,1.412,0.792c0.023,0.017,0.053,0.031,0.077,0.047
					C622.288,275.562,622.386,275.628,622.464,275.676z M606.537,218.908c-0.003,0-0.003,0.002-0.004,0.004
					c0.001-0.001,0.001-0.002,0.001-0.003L606.537,218.908z"/>
			</g>
		</g>
	</g>
	<g>
		<g>
			<path fill="#609340" d="M567.231,218.704c-0.068-0.026-0.131-0.054-0.193-0.081c0.051,0.183,0.104,0.367,0.153,0.55
				c1.808,6.618,2.913,12.992,2.882,18.758c0.06,0.045,0.12,0.093,0.183,0.14c1.265,0.969,2.384,1.368,3.306,1.722
				c0.226,0.087,0.445,0.174,0.646,0.264c0.039,0.02,0.071,0.04,0.11,0.058c0.117,0.056,0.233,0.115,0.344,0.178
				c0.062,0.029,0.116,0.058,0.175,0.088c0.452,0.23,0.822,0.444,1.103,0.62c0.021,0.011,0.041,0.024,0.06,0.035
				c0.079,0.05,0.155,0.102,0.217,0.141c0.205,0.134,0.318,0.217,0.322,0.211c0,0-0.005-0.012-0.011-0.017
				c0.002,0,0.004,0.002,0.004,0.002c0.004,0.004,0.007,0.01,0.011,0.012l-3.117-9.844c0.729-0.602,1.95-1.938,2.447-4.133
				c0.852-3.036,0.339-6.771-0.646-8.01c-0.109-0.146-0.233-0.279-0.359-0.41c-0.024-0.026-0.05-0.054-0.072-0.081
				c-0.023-0.022-0.046-0.041-0.067-0.062c-0.604-0.592-1.348-0.94-2.13-1.068c0.033-0.222,0.052-0.46,0.057-0.71
				c0.001,0.038,0.009,0.081,0.008,0.117c0.026-0.216,0.017-0.483-0.01-0.766c-0.001-0.002,0-0.004,0.002-0.008
				c-0.007-0.107-0.028-0.231-0.046-0.351c0.009-0.048,0.021-0.096,0.026-0.144c-0.005,0.039-0.001,0.085-0.006,0.124
				c0.119-0.6,0.118-1.306,0.021-2.053c-0.003-0.027-0.007-0.056-0.008-0.081c-0.012-0.074-0.024-0.147-0.036-0.222
				c-0.169-1.167-0.58-2.414-1.258-3.583c-0.08-0.142-0.15-0.283-0.232-0.418c-0.297-0.471-0.688-1.049-1.346-1.771
				c-0.29-0.347-0.697-0.73-1.128-1.109l-0.324-0.284c-0.359-0.364-0.587-0.454-0.912-0.657c-0.281-0.144-0.494-0.225-0.683-0.287
				l-2.939-8.753c-0.001,0.005-0.005,0.011-0.006,0.017c-0.001,0-0.003,0.002-0.003,0.004c0-0.002,0-0.002-0.001-0.004
				c0-0.004,0.005-0.021,0.005-0.021c-0.021-0.022-0.113,0.066-0.257,0.254c-0.514,0.683-1.685,2.679-2.492,5.392
				c-0.427-0.881-0.855-1.694-1.311-2.314c-0.871-1.283-1.692-1.768-1.667-1.784l0.005,0.006c-0.007-0.004-0.007-0.01-0.013-0.015
				l0.02,0.055c-0.003-0.001-0.003,0.027-0.003,0.027l0.002,0.001l-0.012-0.038c-0.007,0.002,0.038,0.091,0.114,0.281
				c0.007,0.014,0.009,0.023,0.017,0.041c3.82,5.138,6.663,12.056,8.837,19.837C567.091,218.609,567.159,218.654,567.231,218.704z"
				/>
			<g>
				<polygon fill="#B7202A" points="563.775,196.843 563.778,196.839 563.774,196.839 				"/>
				<path fill="#B7202A" d="M567.231,218.704c-0.072-0.05-0.144-0.099-0.211-0.147c0.006,0.021,0.01,0.043,0.018,0.066
					C567.101,218.65,567.163,218.678,567.231,218.704z"/>
				<g>
					<path fill="#F24040" d="M570.073,237.931c0.031-5.766-1.074-12.14-2.882-18.758c-0.05-0.183-0.325-0.725-0.171-0.616
						c-2.177-7.784-5.02-14.706-8.84-19.845c0.029,0.082,0.029,0.082,0,0c-5.716-7.685-13.615-11.385-24.736-8.019
						c-18.751,5.682-48.064,30.467-42.67,50.207c0.122,0.44,0.279,0.863,0.43,1.291c6.671,18.758,43.447,25.542,61.778,19.988
						C565.449,258.404,570.003,249.364,570.073,237.931z M564.97,217.17c-0.005-0.004,0-0.016-0.006-0.016
						c-0.001-0.001,0.001-0.007,0-0.007c-0.017-0.011-0.03-0.026-0.046-0.04c0.017,0.012,0.036,0.026,0.051,0.038
						c0.003,0,0.004,0.002,0.007,0.004c0.006,0.004,0.015,0.009,0.018,0.013c0.2,0.116,0.422,0.262,0.658,0.424
						C565.404,217.425,565.171,217.285,564.97,217.17z"/>
					<path fill="#B7202A" d="M564.93,219.959c1.864,6.836,2.794,12.877,2.763,17.957c-0.034,5.521-1.202,10.097-3.481,13.597
						c-1.208,1.864-2.771,3.483-4.646,4.82c-2.009,1.438-4.447,2.595-7.239,3.441c-8.822,2.672-22.173,2.321-34.012-0.896
						c-6.209-1.686-11.715-4.095-15.929-6.97c-4.546-3.101-7.558-6.665-8.955-10.59l-0.059-0.166
						c-0.121-0.336-0.232-0.655-0.311-0.943c-1.11-4.064-0.564-8.65,1.625-13.629c2.027-4.607,5.497-9.543,10.039-14.276
						c4.222-4.396,9.28-8.549,14.628-12.011c5.178-3.349,10.275-5.837,14.749-7.192c4.839-1.466,9.204-1.524,12.97-0.171
						c3.427,1.229,6.536,3.695,9.236,7.328l1.697-1.401l0,0l-1.697,1.401c3.016,4.057,5.634,9.714,7.797,16.839l-1.516-0.092
						l-0.023,0.428l0.113,0.414l0.371,1.353l0.964,0.277c0.128,0.076,0.26,0.158,0.391,0.242l0.277-0.46
						c0.002,0.019,0.01,0.04,0.017,0.062c0.061,0.226,0.145,0.428,0.21,0.591C564.917,219.925,564.923,219.941,564.93,219.959
						 M567.191,219.173c-0.036-0.123-0.17-0.406-0.208-0.549c-0.018-0.069-0.017-0.103,0.037-0.067
						c-2.177-7.784-5.02-14.706-8.84-19.845c0.015,0.042,0.021,0.061,0.021,0.061s-0.007-0.019-0.021-0.061
						c-5.716-7.685-13.615-11.385-24.736-8.019c-18.751,5.682-48.064,30.467-42.67,50.207c0.122,0.44,0.279,0.863,0.43,1.291
						c6.671,18.758,43.447,25.542,61.778,19.988c12.467-3.775,17.021-12.815,17.091-24.249
						C570.104,232.166,568.999,225.791,567.191,219.173L567.191,219.173z M564.918,217.107c0.017,0.012,0.036,0.026,0.051,0.038
						c0.003,0,0.004,0.002,0.007,0.004c0.006,0.004,0.015,0.009,0.018,0.013c0.2,0.116,0.422,0.262,0.658,0.424
						c-0.247-0.161-0.48-0.301-0.682-0.416c-0.002-0.001-0.002-0.003-0.002-0.005c-0.001-0.003,0.001-0.006-0.001-0.009
						c-0.002-0.001-0.002-0.002-0.003-0.002c0-0.002,0-0.001,0-0.001s0-0.005,0-0.007c0,0,0,0,0,0.001
						C564.947,217.136,564.934,217.121,564.918,217.107L564.918,217.107z"/>
				</g>
			</g>
		</g>
		<path fill="#FF7D7E" d="M560.791,230.373c3.084-4.407,5.56-3.769,5.56-3.769l-1.18-8.536l0.015-0.004l-0.024-0.059l-0.01-0.066
			l-0.017,0.004l-3.309-7.891c0,0-1.774,1.927-6.611-0.083c-4.837-2.005-12.337-10.153-26.304-2.103
			c-13.911,8.02-36.239,19.969-33.37,31.159h-0.003c0.005,0.022,0.012,0.042,0.018,0.062c0.004,0.022,0.011,0.042,0.016,0.064
			l0.001-0.003c3.22,11.084,28.167,8.714,44.001,7.723C555.464,245.878,557.708,234.78,560.791,230.373z"/>
		<path fill="#FF7D7E" d="M536.717,194.049c0,0,8.973,9.658,12.396,13.817c3.421,4.158-2.451,5.195-4.074,2.471
			C543.414,207.611,532.707,191.922,536.717,194.049z"/>
		<path fill="#FF7D7E" d="M524.858,198.145c0,0,8.335,8.618,11.593,12.347c3.256,3.728-1.029,4.89-2.693,2.427
			C532.093,210.455,521.481,196.318,524.858,198.145z"/>
		<path fill="#FF7D7E" d="M516.772,204.763c0,0,8.333,8.619,11.59,12.346c3.259,3.729-1.025,4.892-2.692,2.426
			C524.007,217.072,513.393,202.934,516.772,204.763z"/>
		<path fill="#FF7D7E" d="M507.531,212.597c0,0,8.335,8.618,11.592,12.347c3.255,3.729-1.03,4.889-2.69,2.425
			C514.766,224.906,504.153,210.771,507.531,212.597z"/>
		<path fill="#FF7D7E" d="M501.293,219.348c0,0,8.337,8.618,11.592,12.346c3.258,3.729-1.027,4.891-2.692,2.427
			C508.531,231.657,497.918,217.52,501.293,219.348z"/>
		<path fill="#FF7D7E" d="M496.278,226.943c0,0,8.337,8.621,11.591,12.348c3.257,3.727-1.026,4.889-2.691,2.427
			C503.513,239.252,492.901,225.117,496.278,226.943z"/>
		<path fill="#FF7D7E" d="M553.606,255.843c0,0,2.725-13.199,3.527-18.637c0.797-5.439-4.7-3.032-4.7,0.186
			C552.434,240.607,551.285,259.886,553.606,255.843z"/>
		<path fill="#FF7D7E" d="M541.495,259.009c0,0,2.708-11.962,3.587-16.943c0.873-4.979-3.343-3.567-3.507-0.549
			C541.408,244.535,539.556,262.447,541.495,259.009z"/>
		<path fill="#FF7D7E" d="M531.303,257.929c0,0,2.709-11.964,3.584-16.944c0.878-4.981-3.336-3.567-3.504-0.548
			C531.217,243.455,529.364,261.365,531.303,257.929z"/>
		<path fill="#FF7D7E" d="M519.521,256.463c0,0,2.71-11.964,3.587-16.944c0.875-4.979-3.341-3.568-3.504-0.55
			C519.434,241.988,517.582,259.9,519.521,256.463z"/>
		<path fill="#FF7D7E" d="M510.829,254.233c0,0,2.709-11.964,3.586-16.943c0.877-4.98-3.34-3.568-3.507-0.549
			C510.743,239.76,508.892,257.67,510.829,254.233z"/>
		<path fill="#FF7D7E" d="M502.744,250.606c0,0,2.71-11.965,3.588-16.945c0.876-4.98-3.339-3.566-3.507-0.547
			C502.66,236.13,500.808,254.042,502.744,250.606z"/>
		<g>
			<path fill="#F29F77" d="M530.798,239.424c-16.666,5.047-31.77,3.312-32.927-0.917c-1.153-4.227,11.339-13.332,28.005-18.38
				c16.666-5.047,30.715-11.037,33.651-0.295C562.434,230.46,547.465,234.376,530.798,239.424z"/>
			<path fill="#FAB598" d="M530.828,239.536c0,0-0.135,0.042-0.396,0.118c-0.26,0.081-0.648,0.192-1.155,0.34
				c-1.014,0.285-2.504,0.704-4.419,1.168c-1.914,0.464-4.248,0.996-6.966,1.454c-1.357,0.221-2.811,0.426-4.354,0.573
				c-1.542,0.132-3.177,0.23-4.888,0.196c-1.71-0.034-3.504-0.172-5.354-0.555c-0.926-0.192-1.861-0.448-2.808-0.824
				c-0.476-0.188-0.946-0.417-1.417-0.702c-0.465-0.287-0.938-0.628-1.359-1.118c-0.21-0.246-0.408-0.53-0.564-0.86
				c-0.038-0.085-0.074-0.169-0.105-0.256c-0.031-0.09-0.06-0.182-0.088-0.271c-0.03-0.126-0.015-0.063-0.025-0.104l-0.006-0.045
				l-0.021-0.095c-0.004-0.012-0.007-0.038-0.011-0.065l-0.013-0.085l-0.017-0.163c-0.052-0.78,0.146-1.428,0.39-1.993
				c0.25-0.566,0.565-1.053,0.903-1.503c0.338-0.452,0.703-0.864,1.078-1.258c0.757-0.788,1.582-1.482,2.432-2.142
				c0.851-0.657,1.736-1.268,2.642-1.854c1.816-1.17,3.719-2.229,5.669-3.235c1.953-1.003,3.953-1.958,5.993-2.856
				c1.021-0.449,2.049-0.885,3.091-1.306c1.038-0.429,2.085-0.836,3.145-1.225c1.052-0.399,2.116-0.78,3.187-1.142
				c1.063-0.366,2.124-0.733,3.189-1.099c2.125-0.75,4.25-1.499,6.363-2.244c1.065-0.362,2.129-0.718,3.196-1.063
				c1.072-0.34,2.142-0.662,3.217-0.965c2.151-0.606,4.321-1.125,6.533-1.444c1.106-0.154,2.225-0.259,3.359-0.245
				c1.132,0.008,2.284,0.125,3.424,0.441c1.134,0.313,2.27,0.851,3.215,1.674c0.946,0.814,1.68,1.864,2.164,2.962
				c0.245,0.548,0.443,1.106,0.598,1.665l0.016,0.052l0.021,0.078l0.024,0.097l0.047,0.19l0.047,0.192l0.046,0.225
				c0.067,0.308,0.107,0.597,0.149,0.887c0.138,1.175,0.073,2.398-0.232,3.542c-0.307,1.144-0.848,2.172-1.485,3.05
				c-0.321,0.438-0.666,0.841-1.025,1.217c-0.356,0.374-0.736,0.708-1.114,1.029c-1.529,1.266-3.149,2.154-4.721,2.898
				c-3.157,1.458-6.15,2.338-8.794,3.103c-2.648,0.747-4.959,1.35-6.856,1.874c-1.896,0.518-3.382,0.94-4.395,1.237
				C531.366,239.377,530.828,239.536,530.828,239.536z M530.767,239.312c0,0,0.537-0.166,1.544-0.477
				c1.008-0.313,2.483-0.778,4.348-1.402c1.865-0.629,4.119-1.43,6.661-2.458c1.271-0.51,2.614-1.078,4.004-1.717
				c1.395-0.631,2.831-1.35,4.27-2.166c1.437-0.82,2.885-1.753,4.168-2.898c0.635-0.574,1.223-1.205,1.708-1.901
				c0.479-0.695,0.842-1.46,1.05-2.271c0.203-0.813,0.24-1.678,0.125-2.564c-0.035-0.219-0.064-0.449-0.111-0.651l-0.029-0.155
				l-0.048-0.188l-0.048-0.19l-0.025-0.096c-0.009-0.044,0.004,0.002-0.004-0.019l-0.013-0.039
				c-0.124-0.452-0.283-0.886-0.469-1.298c-0.368-0.827-0.868-1.556-1.515-2.12c-0.649-0.566-1.435-0.988-2.322-1.255
				c-0.885-0.268-1.854-0.397-2.852-0.426c-0.998-0.029-2.024,0.031-3.061,0.145c-2.081,0.229-4.192,0.682-6.316,1.195
				c-1.063,0.258-2.127,0.54-3.196,0.826c-1.072,0.283-2.146,0.577-3.221,0.879c-2.157,0.594-4.323,1.192-6.489,1.79
				c-1.086,0.294-2.171,0.59-3.252,0.886c-1.078,0.297-2.147,0.615-3.211,0.956c-1.06,0.351-2.111,0.717-3.154,1.105
				c-1.039,0.392-2.066,0.811-3.083,1.251c-4.057,1.754-7.895,3.922-11.262,6.475c-1.676,1.278-3.252,2.651-4.532,4.159
				c-0.318,0.375-0.615,0.761-0.873,1.155c-0.259,0.392-0.476,0.794-0.623,1.183c-0.154,0.382-0.214,0.765-0.18,1.014
				c0.003,0.007,0.001,0.015,0.003,0.024v0.013c-0.002,0.003,0.001,0.01,0.005,0.03l0.021,0.091l0.01,0.047
				c0-0.009,0.02,0.084,0-0.008c0.012,0.03,0.021,0.06,0.032,0.09l0.042,0.089c0.065,0.125,0.158,0.251,0.272,0.379
				c0.234,0.254,0.556,0.495,0.912,0.703c0.354,0.209,0.746,0.385,1.146,0.549c0.802,0.318,1.652,0.546,2.499,0.748
				c1.697,0.375,3.398,0.594,5.037,0.731c1.645,0.136,3.231,0.211,4.746,0.215c1.516,0.012,2.956-0.034,4.313-0.115
				c2.711-0.158,5.066-0.485,6.988-0.846c1.927-0.36,3.423-0.739,4.436-1.017c0.505-0.142,0.894-0.251,1.153-0.329
				C530.633,239.351,530.767,239.312,530.767,239.312z"/>
		</g>
		<path fill="#F9908A" d="M529.663,232.691c-16.007,4.85-29.375,7.348-29.858,5.579c-0.484-1.767,12.103-7.129,28.109-11.979
			c16.005-4.849,29.375-7.347,29.856-5.58C558.254,222.479,545.67,227.843,529.663,232.691z"/>
	</g>
</g>
<g>
	<path fill="#3E5B2D" d="M268.492,179.208c0.394,0.03,0.689,0.388,0.663,0.802l0,0c-0.028,0.413-0.368,0.726-0.761,0.697
		l-5.216-0.379c-0.393-0.029-0.69-0.388-0.662-0.801l0,0c0.027-0.413,0.368-0.726,0.761-0.697L268.492,179.208z"/>
	<path fill="#3E5B2D" d="M257.967,172.052c0.698,0.051,1.226,0.688,1.178,1.424l0,0c-0.049,0.734-0.654,1.29-1.352,1.239
		l-4.425-0.321c-0.698-0.051-1.227-0.689-1.178-1.422l0,0c0.048-0.736,0.653-1.29,1.351-1.241L257.967,172.052z"/>
	<path fill="#3E5B2D" d="M261.561,188.068c0.392,0.028,0.688,0.387,0.662,0.8l0,0c-0.028,0.414-0.369,0.725-0.76,0.697l-5.217-0.378
		c-0.393-0.029-0.688-0.388-0.662-0.8l0,0c0.027-0.415,0.368-0.726,0.76-0.697L261.561,188.068z"/>
	<path fill="#3E5B2D" d="M251.034,180.912c0.697,0.049,1.225,0.687,1.177,1.424l0,0c-0.049,0.734-0.654,1.288-1.352,1.237
		l-4.426-0.321c-0.7-0.051-1.227-0.687-1.179-1.423l0,0c0.048-0.734,0.655-1.291,1.353-1.239L251.034,180.912z"/>
	<path fill="#3E5B2D" d="M248.087,175.555c0.393,0.027,0.689,0.386,0.661,0.799l0,0c-0.027,0.414-0.366,0.726-0.76,0.698
		l-5.217-0.379c-0.392-0.028-0.688-0.385-0.661-0.8l0,0c0.028-0.414,0.367-0.727,0.759-0.697L248.087,175.555z"/>
	<path fill="#3E5B2D" d="M268.278,194.034c0.699,0.051,1.227,0.687,1.178,1.423l0,0c-0.048,0.735-0.654,1.291-1.352,1.239
		l-4.425-0.32c-0.699-0.051-1.226-0.688-1.178-1.423l0,0c0.049-0.736,0.654-1.291,1.352-1.24L268.278,194.034z"/>
	<path fill="#4E7C39" d="M298.159,216.273c-0.152,2.323-0.473,4.643-0.949,6.893c-2.795,14.467-12.876,27.272-25.674,32.571
		c-8.993,3.888-19.725,3.979-29.406,0.233c-9.861-3.837-18.965-9.544-27.768-15.062l-0.851-0.534
		c-2.897-1.682-6.004-3.225-9.006-4.717c-6.64-3.298-13.506-6.71-19.264-12.087c-5.216-4.763-8.045-12.146-7.549-19.727
		c0.08-1.206,0.246-2.405,0.493-3.571c1.221-7.909,6.73-14.757,14.399-17.884c6.458-2.692,13.23-3.897,19.778-5.064
		c4.956-0.883,10.077-1.796,14.896-3.348l0.14-0.04c1.031-0.266,2.064-0.537,3.101-0.809c9.456-2.479,19.231-5.041,29.373-4.478
		c13.19,0.892,25.572,8.988,32.344,21.134C296.656,197.42,298.776,206.841,298.159,216.273z"/>
	<path fill="#3E5B2D" d="M188.146,199.923c0.698,0.05,1.226,0.687,1.178,1.422l0,0c-0.048,0.735-0.654,1.29-1.352,1.24l-4.426-0.323
		c-0.698-0.049-1.226-0.688-1.178-1.423l0,0c0.049-0.735,0.653-1.289,1.353-1.238L188.146,199.923z"/>
	<path fill="#3E5B2D" d="M194.979,191.39c0.394,0.029,0.689,0.387,0.662,0.8l0,0c-0.027,0.414-0.367,0.726-0.76,0.698l-5.216-0.379
		c-0.393-0.028-0.688-0.386-0.662-0.8l0,0c0.028-0.414,0.368-0.725,0.76-0.697L194.979,191.39z"/>
	<path fill="#3E5B2D" d="M263.941,251.988c0.393,0.029,0.688,0.387,0.662,0.8l0,0c-0.027,0.414-0.367,0.725-0.759,0.696
		l-5.215-0.378c-0.394-0.03-0.69-0.386-0.663-0.799l0,0c0.027-0.415,0.368-0.727,0.76-0.698L263.941,251.988z"/>
	<path fill="#3E5B2D" d="M260.723,242.353c0.699,0.05,1.226,0.688,1.178,1.423l0,0c-0.048,0.735-0.654,1.29-1.351,1.239l-4.426-0.32
		c-0.698-0.052-1.226-0.689-1.178-1.423l0,0c0.049-0.737,0.652-1.291,1.353-1.24L260.723,242.353z"/>
	<path fill="#3E5B2D" d="M268.492,179.208c0.394,0.03,0.689,0.388,0.663,0.802l0,0c-0.028,0.413-0.368,0.726-0.761,0.697
		l-5.216-0.379c-0.393-0.029-0.69-0.388-0.662-0.801l0,0c0.027-0.413,0.368-0.726,0.761-0.697L268.492,179.208z"/>
	<path fill="#3E5B2D" d="M257.967,172.052c0.698,0.051,1.226,0.688,1.178,1.424l0,0c-0.049,0.734-0.654,1.29-1.352,1.239
		l-4.425-0.321c-0.698-0.051-1.227-0.689-1.178-1.422l0,0c0.048-0.736,0.653-1.29,1.351-1.241L257.967,172.052z"/>
	<path fill="#3E5B2D" d="M261.561,188.068c0.392,0.028,0.688,0.387,0.662,0.8l0,0c-0.028,0.414-0.369,0.725-0.76,0.697l-5.217-0.378
		c-0.393-0.029-0.688-0.388-0.662-0.8l0,0c0.027-0.415,0.368-0.726,0.76-0.697L261.561,188.068z"/>
	<path fill="#3E5B2D" d="M251.034,180.912c0.697,0.049,1.225,0.687,1.177,1.424l0,0c-0.049,0.734-0.654,1.288-1.352,1.237
		l-4.426-0.321c-0.7-0.051-1.227-0.687-1.179-1.423l0,0c0.048-0.734,0.655-1.291,1.353-1.239L251.034,180.912z"/>
	<path fill="#3E5B2D" d="M248.087,175.555c0.393,0.027,0.689,0.386,0.661,0.799l0,0c-0.027,0.414-0.366,0.726-0.76,0.698
		l-5.217-0.379c-0.392-0.028-0.688-0.385-0.661-0.8l0,0c0.028-0.414,0.367-0.727,0.759-0.697L248.087,175.555z"/>
	<path fill="#3E5B2D" d="M268.278,194.034c0.699,0.051,1.227,0.687,1.178,1.423l0,0c-0.048,0.735-0.654,1.291-1.352,1.239
		l-4.425-0.32c-0.699-0.051-1.226-0.688-1.178-1.423l0,0c0.049-0.736,0.654-1.291,1.352-1.24L268.278,194.034z"/>
	<path fill="#3E5B2D" d="M289.964,189.857c0.393,0.028,0.69,0.387,0.664,0.801l0,0c-0.029,0.413-0.369,0.725-0.762,0.696
		l-5.216-0.378c-0.394-0.029-0.689-0.387-0.662-0.799l0,0c0.026-0.414,0.366-0.726,0.76-0.698L289.964,189.857z"/>
	<path fill="#3E5B2D" d="M283.858,180.681c0.699,0.051,1.226,0.688,1.177,1.423l0,0c-0.047,0.735-0.652,1.29-1.351,1.239
		l-4.426-0.321c-0.698-0.051-1.226-0.688-1.177-1.422l0,0c0.048-0.735,0.653-1.29,1.352-1.24L283.858,180.681z"/>
	<path fill="#3E5B2D" d="M287.452,196.696c0.394,0.028,0.689,0.388,0.662,0.801l0,0c-0.026,0.412-0.368,0.726-0.76,0.696
		l-5.215-0.378c-0.393-0.029-0.69-0.388-0.661-0.801l0,0c0.026-0.414,0.367-0.726,0.759-0.697L287.452,196.696z"/>
	<path fill="#3E5B2D" d="M276.925,189.54c0.698,0.051,1.227,0.688,1.177,1.423l0,0c-0.048,0.735-0.653,1.291-1.352,1.24
		l-4.424-0.322c-0.7-0.05-1.228-0.688-1.179-1.423l0,0c0.049-0.734,0.654-1.29,1.353-1.239L276.925,189.54z"/>
	<path fill="#3E5B2D" d="M273.979,184.183c0.393,0.027,0.688,0.385,0.662,0.8l0,0c-0.027,0.414-0.368,0.726-0.76,0.697l-5.216-0.379
		c-0.392-0.028-0.689-0.387-0.663-0.8l0,0c0.028-0.414,0.369-0.725,0.762-0.697L273.979,184.183z"/>
	<path fill="#3E5B2D" d="M294.171,202.662c0.698,0.052,1.226,0.688,1.176,1.424l0,0c-0.047,0.735-0.652,1.29-1.351,1.239
		l-4.426-0.321c-0.698-0.051-1.225-0.688-1.176-1.424l0,0c0.047-0.734,0.652-1.29,1.35-1.238L294.171,202.662z"/>
	<path fill="#3E5B2D" d="M257.315,194.366c0.392,0.029,0.689,0.387,0.662,0.802l0,0c-0.027,0.413-0.368,0.725-0.76,0.696
		l-5.216-0.379c-0.394-0.029-0.691-0.387-0.664-0.799l0,0c0.027-0.415,0.368-0.728,0.761-0.697L257.315,194.366z"/>
	<path fill="#3E5B2D" d="M246.788,187.209c0.699,0.051,1.226,0.688,1.178,1.424l0,0c-0.049,0.735-0.654,1.291-1.351,1.239
		l-4.427-0.321c-0.699-0.052-1.227-0.688-1.178-1.421l0,0c0.049-0.737,0.654-1.292,1.353-1.242L246.788,187.209z"/>
	<path fill="#3E5B2D" d="M250.381,203.225c0.393,0.029,0.688,0.388,0.662,0.801l0,0c-0.026,0.413-0.367,0.725-0.759,0.698
		l-5.216-0.379c-0.393-0.029-0.69-0.387-0.662-0.8l0,0c0.026-0.414,0.367-0.726,0.761-0.697L250.381,203.225z"/>
	<path fill="#3E5B2D" d="M239.855,196.07c0.699,0.05,1.226,0.688,1.177,1.424l0,0c-0.048,0.734-0.653,1.29-1.353,1.238l-4.424-0.321
		c-0.699-0.051-1.226-0.689-1.177-1.423l0,0c0.048-0.734,0.654-1.29,1.353-1.239L239.855,196.07z"/>
	<path fill="#3E5B2D" d="M236.908,190.712c0.393,0.028,0.689,0.387,0.663,0.8l0,0c-0.027,0.414-0.368,0.726-0.761,0.697
		l-5.216-0.378c-0.392-0.029-0.688-0.387-0.661-0.8l0,0c0.026-0.414,0.367-0.726,0.76-0.697L236.908,190.712z"/>
	<path fill="#3E5B2D" d="M257.1,209.192c0.699,0.051,1.226,0.688,1.178,1.424l0,0c-0.048,0.735-0.653,1.29-1.352,1.239l-4.425-0.322
		c-0.699-0.05-1.227-0.688-1.177-1.422l0,0c0.049-0.735,0.653-1.29,1.352-1.239L257.1,209.192z"/>
	<path fill="#3E5B2D" d="M285.544,206.422c0.393,0.029,0.689,0.386,0.662,0.8l0,0c-0.027,0.414-0.366,0.727-0.76,0.697l-5.216-0.379
		c-0.393-0.027-0.689-0.387-0.662-0.8l0,0c0.028-0.414,0.367-0.725,0.761-0.697L285.544,206.422z"/>
	<path fill="#3E5B2D" d="M275.018,199.265c0.697,0.052,1.226,0.689,1.177,1.423l0,0c-0.047,0.736-0.653,1.29-1.352,1.241
		l-4.426-0.323c-0.698-0.05-1.225-0.686-1.177-1.422l0,0c0.048-0.735,0.653-1.29,1.351-1.239L275.018,199.265z"/>
	<path fill="#3E5B2D" d="M278.61,215.281c0.393,0.028,0.689,0.388,0.663,0.8l0,0c-0.028,0.416-0.368,0.726-0.761,0.698l-5.216-0.378
		c-0.393-0.029-0.689-0.387-0.662-0.802l0,0c0.026-0.412,0.367-0.725,0.76-0.696L278.61,215.281z"/>
	<path fill="#3E5B2D" d="M268.085,208.125c0.698,0.051,1.224,0.688,1.177,1.423l0,0c-0.049,0.735-0.653,1.291-1.351,1.241
		l-4.427-0.322c-0.698-0.05-1.226-0.688-1.177-1.422l0,0c0.048-0.737,0.653-1.292,1.353-1.241L268.085,208.125z"/>
	<path fill="#3E5B2D" d="M265.137,202.768c0.394,0.029,0.691,0.387,0.663,0.799l0,0c-0.027,0.414-0.368,0.727-0.762,0.698
		l-5.215-0.378c-0.392-0.029-0.689-0.387-0.662-0.802l0,0c0.027-0.414,0.367-0.725,0.76-0.696L265.137,202.768z"/>
	<path fill="#3E5B2D" d="M285.33,221.248c0.697,0.051,1.226,0.687,1.177,1.422l0,0c-0.048,0.735-0.653,1.29-1.352,1.24l-4.426-0.322
		c-0.698-0.05-1.225-0.688-1.178-1.422l0,0c0.048-0.737,0.655-1.29,1.352-1.24L285.33,221.248z"/>
	<path fill="#3E5B2D" d="M273.688,224.955c0.394,0.03,0.69,0.387,0.664,0.802l0,0c-0.028,0.413-0.369,0.725-0.762,0.696
		l-5.215-0.379c-0.393-0.028-0.689-0.385-0.662-0.799l0,0c0.027-0.414,0.369-0.726,0.761-0.699L273.688,224.955z"/>
	<path fill="#3E5B2D" d="M263.162,217.799c0.699,0.051,1.225,0.687,1.177,1.423l0,0c-0.048,0.735-0.653,1.291-1.351,1.239
		l-4.426-0.321c-0.699-0.052-1.226-0.687-1.177-1.422l0,0c0.048-0.736,0.654-1.291,1.352-1.242L263.162,217.799z"/>
	<path fill="#3E5B2D" d="M266.757,233.814c0.392,0.028,0.689,0.387,0.662,0.801l0,0c-0.028,0.413-0.368,0.725-0.76,0.696
		l-5.217-0.378c-0.394-0.029-0.689-0.386-0.662-0.8l0,0c0.026-0.414,0.366-0.726,0.76-0.697L266.757,233.814z"/>
	<path fill="#3E5B2D" d="M256.23,226.658c0.698,0.051,1.225,0.688,1.176,1.424l0,0c-0.047,0.735-0.653,1.29-1.35,1.238l-4.427-0.32
		c-0.698-0.051-1.225-0.688-1.177-1.423l0,0c0.048-0.735,0.653-1.291,1.353-1.24L256.23,226.658z"/>
	<path fill="#3E5B2D" d="M253.283,221.301c0.392,0.028,0.689,0.387,0.663,0.8l0,0c-0.027,0.414-0.369,0.725-0.761,0.697
		l-5.217-0.379c-0.392-0.029-0.688-0.387-0.66-0.801l0,0c0.026-0.414,0.367-0.726,0.759-0.697L253.283,221.301z"/>
	<path fill="#3E5B2D" d="M273.476,239.781c0.698,0.051,1.225,0.688,1.176,1.422l0,0c-0.047,0.736-0.652,1.29-1.351,1.24
		l-4.426-0.321c-0.698-0.052-1.226-0.688-1.177-1.424l0,0c0.047-0.735,0.653-1.291,1.351-1.239L273.476,239.781z"/>
	<path fill="#3E5B2D" d="M253.887,238.731c0.393,0.03,0.69,0.387,0.663,0.801l0,0c-0.028,0.414-0.368,0.727-0.761,0.697
		l-5.216-0.379c-0.393-0.027-0.688-0.386-0.662-0.8l0,0c0.027-0.414,0.368-0.726,0.76-0.698L253.887,238.731z"/>
	<path fill="#3E5B2D" d="M243.362,231.576c0.699,0.051,1.225,0.688,1.177,1.423l0,0c-0.048,0.735-0.653,1.289-1.352,1.24
		l-4.425-0.323c-0.699-0.05-1.227-0.687-1.179-1.422l0,0c0.048-0.735,0.655-1.29,1.353-1.24L243.362,231.576z"/>
	<path fill="#3E5B2D" d="M246.954,247.591c0.394,0.029,0.69,0.387,0.662,0.8l0,0c-0.026,0.414-0.367,0.726-0.76,0.698l-5.214-0.379
		c-0.394-0.029-0.69-0.387-0.664-0.8l0,0c0.027-0.414,0.369-0.725,0.761-0.697L246.954,247.591z"/>
	<path fill="#3E5B2D" d="M236.429,240.435c0.698,0.051,1.225,0.688,1.177,1.424l0,0c-0.048,0.734-0.654,1.29-1.352,1.238
		l-4.425-0.32c-0.7-0.05-1.226-0.688-1.178-1.422l0,0c0.048-0.736,0.653-1.291,1.351-1.24L236.429,240.435z"/>
	<path fill="#3E5B2D" d="M233.481,235.076c0.394,0.029,0.689,0.388,0.663,0.802l0,0c-0.027,0.413-0.367,0.726-0.76,0.697
		l-5.216-0.378c-0.393-0.029-0.69-0.387-0.663-0.802l0,0c0.027-0.413,0.367-0.725,0.76-0.696L233.481,235.076z"/>
	<path fill="#3E5B2D" d="M253.673,253.557c0.699,0.052,1.226,0.689,1.178,1.423l0,0c-0.049,0.736-0.654,1.29-1.352,1.241
		l-4.426-0.323c-0.699-0.05-1.225-0.687-1.177-1.422l0,0c0.048-0.736,0.654-1.29,1.352-1.239L253.673,253.557z"/>
	<path fill="#3E5B2D" d="M243.161,208.528c0.394,0.029,0.69,0.387,0.663,0.801l0,0c-0.027,0.413-0.368,0.726-0.76,0.696
		l-5.216-0.377c-0.393-0.029-0.689-0.388-0.663-0.801l0,0c0.027-0.413,0.367-0.726,0.761-0.696L243.161,208.528z"/>
	<path fill="#3E5B2D" d="M232.635,201.371c0.698,0.05,1.226,0.687,1.177,1.423l0,0c-0.048,0.735-0.653,1.29-1.352,1.238l-4.425-0.32
		c-0.699-0.051-1.226-0.688-1.177-1.422l0,0c0.048-0.735,0.653-1.29,1.351-1.241L232.635,201.371z"/>
	<path fill="#3E5B2D" d="M236.228,217.388c0.394,0.028,0.69,0.386,0.663,0.8l0,0c-0.027,0.414-0.368,0.725-0.762,0.697l-5.215-0.378
		c-0.393-0.028-0.689-0.387-0.663-0.8l0,0c0.027-0.414,0.367-0.726,0.761-0.698L236.228,217.388z"/>
	<path fill="#3E5B2D" d="M225.702,210.231c0.697,0.05,1.224,0.687,1.177,1.423l0,0c-0.048,0.735-0.653,1.29-1.351,1.239
		l-4.426-0.321c-0.699-0.051-1.225-0.689-1.176-1.422l0,0c0.047-0.736,0.653-1.291,1.351-1.24L225.702,210.231z"/>
	<path fill="#3E5B2D" d="M222.755,204.872c0.393,0.029,0.689,0.388,0.662,0.802l0,0c-0.027,0.413-0.367,0.725-0.76,0.697
		l-5.216-0.379c-0.393-0.028-0.69-0.387-0.662-0.801l0,0c0.027-0.413,0.367-0.726,0.76-0.697L222.755,204.872z"/>
	<path fill="#3E5B2D" d="M242.947,223.353c0.698,0.051,1.225,0.688,1.177,1.423l0,0c-0.048,0.735-0.653,1.29-1.351,1.239
		l-4.426-0.321c-0.699-0.051-1.225-0.688-1.175-1.423l0,0c0.047-0.735,0.651-1.291,1.35-1.239L242.947,223.353z"/>
	<path fill="#3E5B2D" d="M229.464,187.304c0.394,0.028,0.69,0.386,0.662,0.8l0,0c-0.025,0.412-0.367,0.725-0.76,0.698l-5.215-0.38
		c-0.394-0.029-0.69-0.387-0.664-0.801l0,0c0.029-0.412,0.369-0.725,0.762-0.696L229.464,187.304z"/>
	<path fill="#3E5B2D" d="M218.938,180.147c0.697,0.05,1.225,0.688,1.177,1.422l0,0c-0.048,0.736-0.653,1.291-1.352,1.239
		l-4.425-0.32c-0.699-0.052-1.227-0.688-1.177-1.423l0,0c0.048-0.736,0.652-1.29,1.35-1.239L218.938,180.147z"/>
	<path fill="#3E5B2D" d="M222.531,196.162c0.394,0.029,0.689,0.388,0.663,0.801l0,0c-0.026,0.414-0.367,0.725-0.76,0.698
		l-5.216-0.378c-0.393-0.03-0.689-0.388-0.662-0.803l0,0c0.027-0.413,0.367-0.725,0.76-0.696L222.531,196.162z"/>
	<path fill="#3E5B2D" d="M212.005,189.007c0.698,0.049,1.225,0.686,1.176,1.423l0,0c-0.047,0.734-0.653,1.29-1.351,1.238
		l-4.426-0.32c-0.699-0.051-1.227-0.688-1.178-1.423l0,0c0.049-0.736,0.654-1.289,1.352-1.239L212.005,189.007z"/>
	<path fill="#3E5B2D" d="M209.058,183.649c0.393,0.029,0.689,0.386,0.663,0.8l0,0c-0.028,0.414-0.369,0.725-0.762,0.698
		l-5.216-0.379c-0.392-0.029-0.688-0.386-0.662-0.8l0,0c0.027-0.414,0.368-0.726,0.761-0.697L209.058,183.649z"/>
	<path fill="#3E5B2D" d="M235.338,179.499c0.699,0.052,1.227,0.688,1.178,1.423l0,0c-0.048,0.736-0.653,1.29-1.352,1.24
		l-4.426-0.322c-0.698-0.05-1.226-0.687-1.178-1.422l0,0c0.049-0.735,0.654-1.291,1.353-1.24L235.338,179.499z"/>
	<path fill="#3E5B2D" d="M224.957,224.594c0.392,0.028,0.689,0.387,0.663,0.8l0,0c-0.027,0.413-0.368,0.727-0.761,0.697
		l-5.216-0.378c-0.393-0.029-0.688-0.388-0.661-0.802l0,0c0.026-0.414,0.368-0.725,0.759-0.696L224.957,224.594z"/>
	<path fill="#3E5B2D" d="M214.431,217.437c0.698,0.052,1.225,0.689,1.177,1.425l0,0c-0.048,0.733-0.654,1.29-1.352,1.238
		l-4.426-0.322c-0.698-0.05-1.226-0.688-1.176-1.422l0,0c0.047-0.736,0.652-1.29,1.351-1.239L214.431,217.437z"/>
	<path fill="#3E5B2D" d="M218.025,233.454c0.392,0.029,0.689,0.386,0.661,0.8l0,0c-0.027,0.413-0.369,0.725-0.761,0.696
		l-5.216-0.378c-0.393-0.029-0.689-0.387-0.662-0.801l0,0c0.027-0.414,0.367-0.726,0.761-0.697L218.025,233.454z"/>
	<path fill="#3E5B2D" d="M207.498,226.297c0.697,0.05,1.224,0.687,1.177,1.423l0,0c-0.048,0.734-0.655,1.29-1.351,1.238
		l-4.426-0.321c-0.698-0.051-1.227-0.688-1.178-1.423l0,0c0.048-0.735,0.653-1.29,1.352-1.24L207.498,226.297z"/>
	<path fill="#3E5B2D" d="M204.55,220.938c0.394,0.028,0.689,0.388,0.662,0.8l0,0c-0.027,0.415-0.367,0.726-0.759,0.698l-5.216-0.378
		c-0.393-0.029-0.689-0.387-0.663-0.801l0,0c0.028-0.413,0.367-0.726,0.76-0.697L204.55,220.938z"/>
	<path fill="#3E5B2D" d="M224.743,239.418c0.698,0.051,1.225,0.688,1.177,1.424l0,0c-0.047,0.735-0.653,1.291-1.351,1.239
		l-4.426-0.321c-0.697-0.05-1.225-0.688-1.177-1.423l0,0c0.047-0.735,0.654-1.291,1.352-1.239L224.743,239.418z"/>
	<path fill="#3E5B2D" d="M211.309,195.347c0.393,0.03,0.689,0.388,0.662,0.8l0,0c-0.027,0.415-0.367,0.726-0.76,0.699l-5.215-0.379
		c-0.393-0.028-0.69-0.387-0.662-0.8l0,0c0.026-0.415,0.366-0.727,0.76-0.698L211.309,195.347z"/>
	<path fill="#3E5B2D" d="M197.07,208.486c0.7,0.05,1.227,0.687,1.178,1.423l0,0c-0.048,0.735-0.654,1.29-1.352,1.239l-4.425-0.32
		c-0.699-0.05-1.226-0.688-1.177-1.424l0,0c0.048-0.735,0.653-1.29,1.35-1.239L197.07,208.486z"/>
	<path fill="#3E5B2D" d="M204.375,204.207c0.393,0.029,0.689,0.387,0.662,0.801l0,0c-0.027,0.414-0.367,0.725-0.76,0.697
		l-5.215-0.379c-0.393-0.027-0.689-0.386-0.662-0.799l0,0c0.027-0.415,0.366-0.727,0.76-0.699L204.375,204.207z"/>
	<path fill="#3E5B2D" d="M193.85,197.051c0.698,0.05,1.226,0.688,1.178,1.422l0,0c-0.048,0.735-0.652,1.29-1.352,1.239l-4.426-0.321
		c-0.699-0.051-1.225-0.688-1.178-1.423l0,0c0.049-0.735,0.654-1.291,1.351-1.24L193.85,197.051z"/>
	<path fill="#3E5B2D" d="M193.431,219.867c0.393,0.028,0.69,0.387,0.663,0.801l0,0c-0.027,0.414-0.367,0.725-0.761,0.696
		l-5.215-0.378c-0.393-0.028-0.69-0.386-0.662-0.8l0,0c0.026-0.415,0.367-0.726,0.76-0.698L193.431,219.867z"/>
	<path fill="#3E5B2D" d="M211.095,210.173c0.699,0.05,1.226,0.688,1.177,1.422l0,0c-0.047,0.736-0.653,1.291-1.352,1.239
		l-4.425-0.321c-0.698-0.05-1.226-0.688-1.177-1.422l0,0c0.047-0.735,0.653-1.291,1.351-1.24L211.095,210.173z"/>
	<path fill="#3E5B2D" d="M295.887,214.054c0.393,0.027,0.689,0.387,0.662,0.8l0,0c-0.027,0.414-0.367,0.725-0.761,0.697
		l-5.215-0.379c-0.394-0.029-0.689-0.388-0.663-0.8l0,0c0.026-0.415,0.367-0.727,0.76-0.698L295.887,214.054z"/>
	<path fill="#3E5B2D" d="M291.226,228.89c0.697,0.051,1.224,0.688,1.177,1.423l0,0c-0.049,0.734-0.653,1.29-1.353,1.239
		l-4.426-0.322c-0.698-0.05-1.225-0.687-1.177-1.422l0,0c0.048-0.736,0.653-1.291,1.351-1.239L291.226,228.89z"/>
	<path fill="#3E5B2D" d="M274.859,248.973c0.392,0.029,0.689,0.388,0.662,0.801l0,0c-0.027,0.414-0.369,0.726-0.761,0.696
		l-5.216-0.378c-0.394-0.028-0.688-0.387-0.663-0.8l0,0c0.027-0.413,0.367-0.726,0.762-0.697L274.859,248.973z"/>
	<path fill="#3E5B2D" d="M284.292,237.75c0.699,0.05,1.226,0.688,1.178,1.423l0,0c-0.049,0.735-0.654,1.291-1.352,1.239
		l-4.426-0.321c-0.698-0.051-1.225-0.688-1.176-1.423l0,0c0.047-0.735,0.652-1.29,1.352-1.239L284.292,237.75z"/>
	<path fill="#3E5B2D" d="M281.346,232.391c0.393,0.029,0.688,0.388,0.661,0.801l0,0c-0.026,0.414-0.367,0.725-0.759,0.697
		l-5.217-0.378c-0.394-0.029-0.688-0.388-0.662-0.802l0,0c0.027-0.413,0.367-0.725,0.76-0.696L281.346,232.391z"/>
	<path fill="#3E5B2D" d="M283.644,211.286c0.698,0.052,1.224,0.688,1.177,1.423l0,0c-0.048,0.735-0.654,1.29-1.352,1.239
		l-4.427-0.322c-0.697-0.051-1.224-0.687-1.177-1.422l0,0c0.048-0.734,0.654-1.29,1.352-1.238L283.644,211.286z"/>
</g>
<g>
	<g>
		<g>
			<g>
				<path fill="#515826" d="M200.107,249.922c0.976-6.499,5.641-11.717,11.318-14.032c9.812-4.09,20.47-4.154,30.474-7.375
					c9.131-2.354,18.449-5.136,28.029-4.604c10.882,0.734,21.208,7.571,26.743,17.499c4.75,8.167,6.145,18.404,4.157,27.765
					c-2.312,11.962-10.504,22.609-21.303,27.079c-7.772,3.361-16.611,3.189-24.373,0.188c-8.797-3.425-16.917-8.585-24.936-13.606
					c-8.207-4.772-17.463-7.902-24.595-14.56C200.775,263.849,198.671,256.541,200.107,249.922L200.107,249.922z"/>
				<path fill="#5F8D45" d="M303.867,263.604c-0.134,2.052-0.418,4.1-0.837,6.089c-2.47,12.778-11.374,24.09-22.678,28.769
					c-7.946,3.437-17.425,3.515-25.976,0.205c-8.712-3.388-16.752-8.427-24.529-13.303l-0.751-0.469
					c-2.561-1.487-5.302-2.848-7.954-4.168c-5.864-2.913-11.929-5.926-17.016-10.676c-4.608-4.208-7.108-10.729-6.669-17.427
					c0.07-1.063,0.217-2.125,0.435-3.154c1.078-6.985,5.944-13.035,12.718-15.797c5.706-2.377,11.688-3.443,17.473-4.474
					c4.375-0.78,8.901-1.586,13.157-2.957l0.124-0.035c0.911-0.236,1.823-0.474,2.739-0.715c8.351-2.19,16.987-4.452,25.945-3.955
					c11.65,0.786,22.588,7.938,28.57,18.667C302.54,246.951,304.414,255.272,303.867,263.604z M201.958,252.952
					c-0.336,5.141,1.634,10.324,5.141,13.528c4.623,4.315,10.134,7.053,15.968,9.954c2.727,1.354,5.547,2.756,8.242,4.323
					l0.063,0.036l0.785,0.493c7.601,4.762,15.461,9.689,23.779,12.927c7.502,2.905,15.789,2.847,22.733-0.155
					c9.949-4.122,17.767-14.068,19.948-25.356c1.929-9.093,0.445-18.636-3.869-26.052c-5.178-9.282-14.966-15.692-24.963-16.367
					c-8.259-0.459-16.563,1.716-24.592,3.821c-0.901,0.236-1.799,0.471-2.694,0.703c-4.516,1.448-9.167,2.277-13.664,3.077
					c-5.811,1.035-11.299,2.014-16.578,4.214c-5.321,2.169-9.116,6.84-9.92,12.195l-0.029,0.159
					C202.13,251.264,202.013,252.106,201.958,252.952z"/>
			</g>
			<path fill="#C9DD8E" d="M239.689,230.193c-8.369,2.296-17.116,3.031-25.442,5.606c-5.466,1.644-10.529,5.721-12.42,11.513
				c-2.302,6.542-1.275,14.446,3.582,19.394c6.76,6.394,15.234,10.002,23.293,14.184c7.092,4.143,13.969,8.784,21.343,12.288
				c6.338,3.258,13.299,5.097,20.349,4.312c11.958-1.153,22.497-9.88,27.454-21.157c1.837-5.305,3.205-10.837,2.909-16.49
				c-0.193-11.288-5.692-22.229-14.448-28.731c-7.067-5.507-16.276-7.065-24.846-5.987
				C254.192,226.409,246.865,228.005,239.689,230.193z"/>
			<path fill="#F8F3A5" d="M225.801,256.406c0.77-3.242,2.84-6.28,5.787-7.773c6.223-2.997,13.031-4.158,19.358-7.018
				c5.544-2.38,11.455-4.667,17.546-4.198c5.966,0.752,11.874,4.059,14.923,9.59c3.882,6.798,5.308,15.843,1.36,22.963
				c-3.244,7.199-10.446,12.043-17.978,12.252c-5.214-0.042-10.152-2.017-14.801-4.283c-6.909-3.445-14.565-5.193-21.291-9.244
				C226.783,266.27,224.672,261.022,225.801,256.406L225.801,256.406z"/>
			<path fill="#743629" d="M248.108,256.075c1-4.507,4.072-8.522,8.386-9.778c8.842-3.185,19.578,4.024,20.427,13.819
				c0.616,5.294-2.083,10.696-6.564,13.079c-5.857,3.088-13.412,1.304-17.903-3.553
				C249.065,266.183,247.253,260.998,248.108,256.075L248.108,256.075z"/>
		</g>
	</g>
</g>
<path fill="#F47E20" d="M529.236,206.35c4.134,44.474-26.763,84.054-69.009,88.405c-42.247,4.351-79.845-28.174-83.978-72.648
	c-4.134-44.473,26.763-84.054,69.01-88.406C487.506,129.349,525.104,161.876,529.236,206.35z"/>
<path fill="#60923F" d="M450.512,142.506c0,0-6.05-35.616,2.18-43.876l5.768,3.112c0,0-7.918,7.404-4.771,41.26
	C453.688,143.002,452.44,146.425,450.512,142.506z"/>
<path fill="#60923F" d="M425.185,96.702c14.724,3.816,23.28,21.354,23.28,21.354s-15.312,11.352-30.037,7.536
	c-14.723-3.817-23.281-21.355-23.281-21.355S410.461,92.885,425.185,96.702z"/>
<path fill="#E9B38E" d="M417.6,188.88c-0.394,8.309-5.764,14.778-11.994,14.451c-6.231-0.327-10.964-7.329-10.569-15.637
	s5.767-14.778,11.996-14.451C413.264,173.57,417.995,180.573,417.6,188.88z"/>
<g>
	<g>
		<path fill="#E27A26" d="M427.532,233.941c4.115,44.281-26.648,83.691-68.712,88.023s-79.5-28.053-83.615-72.334
			c-4.116-44.282,26.648-83.691,68.712-88.024C385.981,157.274,423.417,189.659,427.532,233.941z"/>
		<path fill="#FFF4DE" d="M417.172,235.009c3.557,38.26-23.021,72.31-59.365,76.054c-36.34,3.742-68.687-24.239-72.242-62.498
			c-3.556-38.261,23.025-72.311,59.365-76.054C381.274,168.767,413.617,196.748,417.172,235.009z"/>
		<g>
			<g>
				<g>
					<path fill="#F89C2E" d="M303.782,204.509c-7.975,11.276-12.357,25.37-11.646,40.356l52.091-5.365L303.782,204.509z"/>
					<path fill="#F89C2E" d="M292.692,250.851c2.062,14.847,8.957,27.779,18.855,37.215l33.236-42.58L292.692,250.851z"/>
					<path fill="#F89C2E" d="M386.776,191.689c-10.71-8.396-24.098-13.012-38.333-12.264l5.098,54.841L386.776,191.689z"/>
					<path fill="#F89C2E" d="M410.046,232.72c-2.063-14.845-8.956-27.777-18.856-37.212l-33.235,42.578L410.046,232.72z"/>
					<path fill="#F89C2E" d="M342.758,180.011c-14.105,2.17-26.388,9.431-35.348,19.851l40.445,34.989L342.758,180.011z"/>
					<path fill="#F89C2E" d="M315.958,291.885c10.713,8.396,24.099,13.01,38.337,12.262l-5.098-54.842L315.958,291.885z"/>
					<path fill="#F89C2E" d="M359.981,303.561c14.104-2.171,26.386-9.432,35.349-19.854l-40.446-34.987L359.981,303.561z"/>
					<path fill="#F89C2E" d="M358.511,244.072l40.444,34.989c7.975-11.275,12.357-25.369,11.646-40.355L358.511,244.072z"/>
				</g>
			</g>
		</g>
		<path fill="#FFFFFF" d="M332.426,217.998c2.2,3.395,7.359,4.633,8.8,4.918c0.244,0.048,0.393,0.075,0.393,0.075
			s0.014-0.029,0.04-0.078c0.052-0.003,0.086-0.006,0.086-0.006s0.038-0.15,0.099-0.402c0.366-1.492,1.506-6.938-0.478-10.477
			c-0.034-0.057-0.064-0.107-0.097-0.161c-2.995-5.131-6.97-2.457-7.508-2.06c-0.566,0.341-4.566,2.991-1.432,8.028
			C332.361,217.89,332.392,217.94,332.426,217.998z"/>
		<path fill="#FFFFFF" d="M354.948,210.637c-1.25,3.892,0.92,8.975,1.569,10.358c0.109,0.232,0.181,0.373,0.181,0.373
			s0.03-0.005,0.083-0.012c0.033,0.041,0.057,0.068,0.057,0.068s0.136-0.059,0.364-0.159c1.352-0.59,6.169-2.912,7.656-6.71
			c0.022-0.063,0.043-0.12,0.063-0.179c2.088-5.607-2.335-7.335-2.96-7.549c-0.6-0.27-5.018-2.036-6.949,3.633
			C354.992,210.516,354.971,210.572,354.948,210.637z"/>
		<path fill="#FFFFFF" d="M373.558,222.006c-3.103,2.495-3.999,7.987-4.192,9.516c-0.033,0.258-0.05,0.417-0.05,0.417
			s0.028,0.012,0.076,0.036c0.005,0.055,0.01,0.09,0.01,0.09s0.146,0.032,0.387,0.083c1.436,0.304,6.663,1.211,9.91-1.065
			c0.053-0.04,0.1-0.074,0.15-0.111c4.705-3.424,1.952-7.458,1.549-8.002c-0.354-0.578-3.084-4.64-7.692-1.074
			C373.655,221.934,373.609,221.968,373.558,222.006z"/>
		<path fill="#FFFFFF" d="M381.052,245.549c-3.759-1.103-8.464,1.45-9.742,2.208c-0.215,0.127-0.346,0.209-0.346,0.209
			s0.009,0.032,0.019,0.086c-0.037,0.038-0.062,0.063-0.062,0.063s0.063,0.141,0.17,0.375c0.634,1.388,3.095,6.327,6.778,7.688
			c0.06,0.019,0.113,0.039,0.172,0.057c5.432,1.893,6.833-2.849,7.002-3.516c0.225-0.646,1.662-5.386-3.819-7.111
			C381.166,245.588,381.112,245.57,381.052,245.549z"/>
		<path fill="#FFFFFF" d="M369.48,265.167c-2.236-3.368-7.41-4.544-8.854-4.813c-0.242-0.044-0.392-0.07-0.392-0.07
			s-0.015,0.03-0.039,0.078c-0.053,0.004-0.087,0.008-0.087,0.008s-0.036,0.151-0.095,0.402c-0.35,1.497-1.431,6.958,0.592,10.47
			c0.035,0.057,0.066,0.107,0.1,0.161c3.05,5.094,6.996,2.371,7.529,1.968c0.563-0.347,4.533-3.046,1.344-8.044
			C369.546,265.273,369.516,265.223,369.48,265.167z"/>
		<path fill="#FFFFFF" d="M348.013,272.532c1.049-3.957-1.375-8.911-2.096-10.254c-0.121-0.226-0.199-0.363-0.199-0.363
			s-0.03,0.007-0.082,0.018c-0.035-0.039-0.06-0.065-0.06-0.065s-0.134,0.067-0.355,0.179c-1.32,0.668-6.012,3.256-7.304,7.134
			c-0.019,0.066-0.037,0.123-0.054,0.184c-1.798,5.716,2.706,7.193,3.341,7.37c0.612,0.237,5.114,1.75,6.754-4.02
			C347.977,272.654,347.993,272.597,348.013,272.532z"/>
		<path fill="#FFFFFF" d="M328.648,261.289c3.202-2.349,4.328-7.792,4.583-9.313c0.044-0.256,0.067-0.414,0.067-0.414
			s-0.029-0.015-0.075-0.041c-0.004-0.055-0.006-0.09-0.006-0.09s-0.145-0.04-0.383-0.101c-1.422-0.37-6.607-1.516-9.947,0.608
			c-0.054,0.036-0.101,0.069-0.152,0.104c-4.844,3.205-2.263,7.361-1.881,7.922c0.331,0.595,2.886,4.779,7.641,1.427
			C328.546,261.358,328.594,261.325,328.648,261.289z"/>
		<path fill="#FFFFFF" d="M321.429,237.655c3.71,1.276,8.517-1.057,9.824-1.756c0.22-0.118,0.353-0.194,0.353-0.194
			s-0.005-0.032-0.014-0.086c0.039-0.035,0.064-0.06,0.064-0.06s-0.058-0.145-0.154-0.382c-0.575-1.418-2.828-6.465-6.452-7.994
			c-0.059-0.023-0.113-0.044-0.17-0.064c-5.347-2.141-6.945,2.532-7.141,3.192c-0.251,0.634-1.885,5.302,3.52,7.279
			C321.315,237.612,321.369,237.631,321.429,237.655z"/>
	</g>
</g>
<g>
	
		<line fill="#110D0D" stroke="#303030" stroke-width="2" stroke-miterlimit="10" x1="66.432" y1="429.606" x2="342.176" y2="428.233"/>
	
		<line fill="none" stroke="#303030" stroke-width="2" stroke-miterlimit="10" x1="118.591" y1="447.452" x2="335.655" y2="446.079"/>
	
		<line fill="none" stroke="#303030" stroke-width="2" stroke-miterlimit="10" x1="192.899" y1="465.298" x2="318.704" y2="463.925"/>
</g>
</svg>
